<svg width="80" height="22" viewBox="0 0 80 22" fill="none" xmlns="http://www.w3.org/2000/svg">
<g clip-path="url(#clip0_1774_32)">
<path d="M9.78804 9.31603C10.5184 9.66197 11.1586 10.1728 11.6581 10.8083C12.0927 11.3406 12.3835 11.9755 12.5027 12.6523C12.622 13.3292 12.5656 14.0253 12.3391 14.6741C12.1154 15.3401 11.7462 15.9478 11.2581 16.4529C10.6898 17.0182 10.0057 17.4536 9.25297 17.7289C8.36236 18.0741 7.41373 18.2448 6.4587 18.2318C5.24343 18.2157 4.04769 17.9236 2.96182 17.3775C1.81534 16.8328 0.80381 16.0406 0 15.058L2.4916 12.8953C3.11818 13.6601 3.92395 14.2581 4.83727 14.6363C5.5859 14.9454 6.39747 15.0715 7.20456 15.0039C7.76553 14.9872 8.299 14.7571 8.69628 14.3605C8.85795 14.202 8.96578 13.9967 9.00457 13.7736C9.04336 13.5505 9.01114 13.3208 8.91247 13.117C8.62268 12.5591 8.13204 12.132 7.53966 11.9221L4.17249 10.4028C3.0195 9.97198 2.01285 9.22188 1.27012 8.24009C0.957489 7.81492 0.741356 7.32663 0.636806 6.80929C0.532255 6.29195 0.541805 5.75802 0.664787 5.24475C0.778025 4.63343 1.01656 4.05217 1.36538 3.53759C1.7142 3.02301 2.16574 2.58626 2.69158 2.25482C3.77662 1.56012 5.04082 1.19744 6.32899 1.21132C7.50326 1.2025 8.66346 1.4672 9.71778 1.98449C10.7255 2.46985 11.6274 3.14971 12.3715 3.98498L9.88533 6.14768C9.42972 5.6492 8.91204 5.21128 8.34497 4.84466C7.8826 4.52677 7.35093 4.3241 6.79434 4.25356C6.23774 4.18302 5.67236 4.24665 5.14534 4.43915C4.43191 4.69327 4.06439 5.08796 4.00494 5.62323C3.94549 6.1585 4.23194 6.54237 4.81025 6.94788C5.14701 7.14849 5.49533 7.32903 5.85337 7.48855L7.19375 8.12114L8.62602 8.76995C9.15028 9.00785 9.53402 9.19168 9.78804 9.31603Z" fill="#175CD3"/>
<path d="M17.8448 13.2523C17.7864 13.6456 17.8427 14.0474 18.0069 14.4094C18.1498 14.7111 18.4005 14.9484 18.7096 15.0744C19.0538 15.207 19.4224 15.2641 19.7905 15.242C20.2647 15.2172 20.7336 15.1299 21.185 14.9825V17.9183C20.036 18.2465 18.8241 18.2873 17.6556 18.0373C16.7771 17.7944 16.0001 17.275 15.4397 16.5559C14.8794 15.8156 14.5912 14.9048 14.6236 13.9768V2.08203H17.8664V5.09358H21.2282V7.91049H17.8448V13.2523Z" fill="#175CD3"/>
<path d="M26.4461 7.51545V12.2085C26.4546 12.9461 26.7532 13.6508 27.2772 14.1699C27.8011 14.689 28.5083 14.9808 29.2458 14.9821C29.6141 14.9873 29.9796 14.917 30.3197 14.7757C30.6599 14.6343 30.9676 14.4249 31.2239 14.1603C31.4867 13.9085 31.6948 13.6053 31.8352 13.2694C31.9756 12.9336 32.0454 12.5725 32.04 12.2085V5.09863H35.2829V12.2085C35.2982 13.5348 34.8595 14.8264 34.0398 15.8689C33.2443 16.9217 32.1232 17.6821 30.851 18.0315C29.6959 18.345 28.4735 18.3067 27.3403 17.9214C26.2071 17.5362 25.2146 16.8215 24.4896 15.8689C23.6699 14.8264 23.2312 13.5348 23.2465 12.2085V5.09863H26.4893L26.4461 7.51545Z" fill="#175CD3"/>
<path d="M37.1094 11.5655C37.1073 10.6901 37.278 9.82297 37.6119 9.01384C37.9458 8.20472 38.4362 7.46955 39.0549 6.85059C39.6736 6.23162 40.4085 5.74105 41.2174 5.40706C42.0262 5.07307 42.893 4.90223 43.7681 4.90437C44.1664 4.90453 44.5641 4.93708 44.9571 5.00169L47.2055 6.30471V1.11426H50.4484V18.0157H47.2055V16.8316L44.9571 18.1076C44.566 18.1889 44.1676 18.2306 43.7681 18.232C42.0029 18.2262 40.3117 17.5219 39.0641 16.2727C37.8164 15.0236 37.1137 13.3313 37.1094 11.5655ZM41.3413 9.13784C40.8617 9.61682 40.535 10.2275 40.4028 10.8925C40.2706 11.5575 40.3388 12.2467 40.5988 12.8729C40.8588 13.499 41.2988 14.0338 41.863 14.4094C42.4273 14.785 43.0903 14.9844 43.7681 14.9825C44.2195 14.9889 44.6676 14.904 45.0855 14.7331C45.5034 14.5621 45.8826 14.3086 46.2002 13.9877C46.5212 13.669 46.7759 13.29 46.9497 12.8724C47.1236 12.4548 47.2131 12.007 47.2131 11.5546C47.2131 11.1023 47.1236 10.6544 46.9497 10.2369C46.7759 9.81929 46.5212 9.44025 46.2002 9.12162C45.881 8.80185 45.5018 8.54818 45.0845 8.3751C44.6672 8.20202 44.2198 8.11294 43.7681 8.11294C43.3163 8.11294 42.869 8.20202 42.4516 8.3751C42.0343 8.54818 41.6552 8.80185 41.3359 9.12162L41.3413 9.13784Z" fill="#175CD3"/>
<path d="M64.8557 5.09863L60.6184 16.8313C60.5535 17.0043 60.467 17.2422 60.3535 17.5395C60.24 17.8369 60.1481 18.1181 60.0617 18.3722C59.9752 18.6263 59.8833 18.8588 59.786 19.0805C59.4991 19.9391 58.9765 20.6998 58.2781 21.2756C57.5715 21.7788 56.7181 22.0335 55.8513 22.0001H52.2031V18.7561H55.446C55.7554 18.7862 56.0646 18.6973 56.3108 18.5073C56.5216 18.2617 56.6781 17.9743 56.7702 17.6639L52.2247 5.12566H55.6622L55.7541 5.40682L56.9377 8.65086L58.5591 13.1547L60.667 7.29918L61.4507 5.13648L64.8557 5.09863Z" fill="#175CD3"/>
<path d="M66.6133 5.09863H69.8561V18.0153H66.6133V5.09863Z" fill="#175CD3"/>
<path d="M75.7595 13.2523C75.7028 13.6461 75.761 14.0479 75.9271 14.4094C76.0664 14.7117 76.3158 14.9495 76.6243 15.0744C76.9685 15.207 77.3371 15.2641 77.7053 15.242C78.1812 15.2168 78.6517 15.1295 79.1051 14.9825V17.9184C77.9543 18.2465 76.7406 18.2873 75.5704 18.0373C74.6918 17.7944 73.9148 17.275 73.3544 16.5559C72.7911 15.8201 72.4956 14.9142 72.5167 13.9877V2.08203H75.7595V5.09358H79.1267V7.91049H75.7595V13.2523Z" fill="#175CD3"/>
<path d="M67.6786 0H68.7596V0.686654L68.5866 1.39494L69.0839 0.897517L69.7054 0.535266L69.9648 1.01647L70.2405 1.48145L69.6352 1.82748L68.9488 2.01671L69.6352 2.20595L70.2405 2.57361L69.9648 3.03859L69.7054 3.50357L69.0893 3.16294L68.592 2.66012L68.765 3.35218V4.06046H67.684V3.34677L67.857 2.65471L67.3597 3.15753L66.7544 3.50357L66.4788 3.03859L66.2031 2.57361L66.8031 2.20595L67.4949 2.01671L66.8031 1.82748L66.2031 1.48145L66.4788 1.00025L66.7544 0.535266L67.3597 0.897517L67.857 1.39494L67.684 0.686654L67.6786 0Z" fill="#175CD3"/>
</g>
<defs>
<clipPath id="clip0_1774_32">
<rect width="79.1205" height="22" fill="white"/>
</clipPath>
</defs>
</svg>
